<svg xmlns="http://www.w3.org/2000/svg" xmlns:xlink="http://www.w3.org/1999/xlink" viewBox="10842 -432 1385 630"><defs><style>.a{fill:#fff;stroke:#707070;}.b{clip-path:url(#a);}.c,.d{fill:#f1f4f8;}.c{opacity:0.505;}</style><clipPath id="a"><rect class="a" width="1385" height="630" transform="translate(215 -190)"/></clipPath></defs><g class="b" transform="translate(10627 -242)"><g transform="translate(174 -341)"><path class="c" d="M0,366.723q0-15.832,1.429-31.313L0,334.3V0H1494V332.3L453.271,685.271A337.863,337.863,0,0,1,338.5,705.224C151.552,705.224,0,553.672,0,366.723Z" transform="translate(530 0.777)"/><path class="d" d="M0,366.723q0-15.832,1.429-31.313L0,334.3V0H1494V332.3L453.271,685.271A337.863,337.863,0,0,1,338.5,705.224C151.552,705.224,0,553.672,0,366.723Z" transform="translate(0 0.777)"/></g></g></svg>